<svg width="20" height="20" viewBox="0 0 20 20" fill="none" xmlns="http://www.w3.org/2000/svg">
<g id="icon/menu/contacts" opacity="0.9" clip-path="url(#clip0_241_356)">
<path id="Vector" d="M6.81106 6.11106C6.81106 4.34905 8.23793 2.92217 9.99994 2.92217C11.762 2.92217 13.1888 4.34905 13.1888 6.11106C13.1888 7.87307 11.762 9.29995 9.99994 9.29995C8.23793 9.29995 6.81106 7.87307 6.81106 6.11106ZM2.92217 14.8611C2.92217 14.4716 3.11169 14.0787 3.54717 13.6768C3.9874 13.2705 4.63067 12.904 5.39793 12.5966C6.93358 11.9814 8.78953 11.6722 9.99994 11.6722C11.2104 11.6722 13.0663 11.9814 14.602 12.5966C15.3692 12.904 16.0125 13.2705 16.4527 13.6768C16.8882 14.0787 17.0777 14.4716 17.0777 14.8611V17.0777H2.92217V14.8611Z" stroke="#D9D9D9" stroke-width="1.4"/>
</g>
<defs>
<clipPath id="clip0_241_356">
<rect width="20" height="20" fill="white"/>
</clipPath>
</defs>
</svg>
