<svg width="1555" height="1005" viewBox="0 0 1555 1005" fill="none" xmlns="http://www.w3.org/2000/svg">
<path d="M1772.38 717.123C1754.93 786.03 1706.11 843.564 1632.68 888.589C1559.25 933.617 1461.23 966.116 1345.48 984.951C1113.97 1022.62 811.585 1005.62 493.217 925.001C174.849 844.379 -99.1792 715.413 -284.858 572.096C-377.698 500.437 -448.431 425.205 -491.582 350.655C-534.732 276.107 -550.287 202.272 -532.837 133.365C-515.388 64.4573 -466.566 6.92394 -393.136 -38.1017C-319.704 -83.129 -221.69 -115.628 -105.933 -134.464C125.578 -172.134 427.959 -155.135 746.327 -74.5132C1064.7 6.10825 1338.72 135.075 1524.4 278.392C1617.24 350.051 1687.97 425.283 1731.13 499.833C1774.28 574.38 1789.83 648.216 1772.38 717.123Z" stroke="url(#paint0_linear_137_201)"/>
<defs>
<linearGradient id="paint0_linear_137_201" x1="-452.555" y1="93.6755" x2="1543.61" y2="921.813" gradientUnits="userSpaceOnUse">
<stop stop-color="#484848"/>
<stop offset="0.491388" stop-color="#484848" stop-opacity="0.36"/>
<stop offset="1" stop-color="#484848"/>
</linearGradient>
</defs>
</svg>
