<svg width="1461" height="841" viewBox="0 0 1461 841" fill="none" xmlns="http://www.w3.org/2000/svg">
<path d="M1455.27 631.82C1442.63 681.733 1407.27 723.418 1354.05 756.049C1300.83 788.681 1229.79 812.238 1145.88 825.892C978.06 853.199 758.855 840.877 528.054 782.431C297.254 723.984 98.6036 630.491 -35.994 526.601C-103.293 474.656 -154.56 420.126 -185.833 366.098C-217.104 312.073 -228.367 258.58 -215.728 208.667C-203.088 158.754 -167.722 117.069 -114.507 84.4388C-61.289 51.8067 9.75163 28.2494 93.663 14.5956C261.484 -12.7116 480.689 -0.389593 711.49 58.0569C942.29 116.503 1140.94 209.996 1275.54 313.886C1342.84 365.831 1394.1 420.361 1425.38 474.389C1456.65 528.414 1467.91 581.908 1455.27 631.82Z" stroke="url(#paint0_linear_137_200)"/>
<defs>
<linearGradient id="paint0_linear_137_200" x1="-157.657" y1="179.859" x2="1289.55" y2="780.253" gradientUnits="userSpaceOnUse">
<stop stop-color="#484848"/>
<stop offset="0.491388" stop-color="#484848" stop-opacity="0.36"/>
<stop offset="1" stop-color="#484848"/>
</linearGradient>
</defs>
</svg>
